<?xml version="1.0" encoding="UTF-8" standalone="no"?>
<!-- Created with Inkscape (http://www.inkscape.org/) -->

<svg
   xmlns:dc="http://purl.org/dc/elements/1.1/"
   xmlns:cc="http://creativecommons.org/ns#"
   xmlns:rdf="http://www.w3.org/1999/02/22-rdf-syntax-ns#"
   xmlns:svg="http://www.w3.org/2000/svg"
   xmlns="http://www.w3.org/2000/svg"
   xmlns:sodipodi="http://sodipodi.sourceforge.net/DTD/sodipodi-0.dtd"
   xmlns:inkscape="http://www.inkscape.org/namespaces/inkscape"
   width="271.31918mm"
   height="154.19563mm"
   viewBox="0 0 271.31918 154.19563"
   version="1.1"
   id="svg7623"
   inkscape:version="0.92.5 (2060ec1f9f, 2020-04-08)"
   sodipodi:docname="ccd_tools.svg">
  <defs
     id="defs7617" />
  <sodipodi:namedview
     id="base"
     pagecolor="#ffffff"
     bordercolor="#666666"
     borderopacity="1.0"
     inkscape:pageopacity="0.0"
     inkscape:pageshadow="2"
     inkscape:zoom="0.7"
     inkscape:cx="191.77341"
     inkscape:cy="448.60889"
     inkscape:document-units="mm"
     inkscape:current-layer="layer1"
     showgrid="false"
     fit-margin-top="0"
     fit-margin-left="0"
     fit-margin-right="0"
     fit-margin-bottom="0"
     inkscape:window-width="2037"
     inkscape:window-height="1135"
     inkscape:window-x="1920"
     inkscape:window-y="0"
     inkscape:window-maximized="0" />
  <metadata
     id="metadata7620">
    <rdf:RDF>
      <cc:Work
         rdf:about="">
        <dc:format>image/svg+xml</dc:format>
        <dc:type
           rdf:resource="http://purl.org/dc/dcmitype/StillImage" />
        <dc:title></dc:title>
      </cc:Work>
    </rdf:RDF>
  </metadata>
  <g
     inkscape:label="Ebene 1"
     inkscape:groupmode="layer"
     id="layer1"
     transform="translate(42.287726,-118.68438)">
    <g
       id="g7762"
       transform="matrix(0.31074467,0,0,0.31074467,-45.91678,148.20657)"
       style="fill:none;fill-rule:evenodd">
      <path
         id="path7736"
         d="m 11.678571,189 h 19.785836 v 26.789 h 23.9037 V 189 h 19.785836 v 75.25 H 55.368107 v -28.69533 h -23.9037 V 264.25 H 11.678571 Z m 86.173843,75.25 V 189 h 46.803046 v 16.35433 H 117.63825 V 217.595 h 23.9037 v 16.65533 h -23.9037 v 13.846 h 27.01721 V 264.25 Z m 68.497156,0 V 189 h 19.78584 v 55.384 h 27.11764 V 264.25 Z M 243.88594,189 274.61927,216.89267 305.25216,189 h 8.93878 v 75.25 H 294.30467 V 225.62167 L 274.61927,243.58133 254.83344,225.722 V 264.25 H 234.94716 V 189 Z"
         inkscape:connector-curvature="0"
         style="fill:#0f1689" />
      <g
         id="g7748"
         transform="matrix(1,0,0,-1,11.958136,455)">
        <g
           id="g7744"
           mask="url(#a)"
           style="fill:#0f1689">
          <path
             id="path7738"
             transform="rotate(35,137.93117,151.55002)"
             d="m 203.46068,95.687543 c 6.93631,0 12.5593,-14.80922 12.5593,-33.077318 0,-18.268097 -5.62299,-33.077317 -12.5593,-33.077317 -6.93631,0 -12.55931,14.80922 -12.55931,33.077317 0,18.268098 5.62299,33.077318 12.55931,33.077318 z"
             inkscape:connector-curvature="0" />
          <path
             id="path7740"
             transform="matrix(-0.81915204,0.57357644,0.57357644,0.81915204,58.084611,47.704768)"
             d="m 30.142322,95.687543 c 6.936311,0 12.559301,-14.80922 12.559301,-33.077318 0,-18.268097 -5.62299,-33.077317 -12.559301,-33.077317 -6.93631,0 -12.559301,14.80922 -12.559301,33.077317 0,18.268098 5.622991,33.077318 12.559301,33.077318 z"
             inkscape:connector-curvature="0" />
          <path
             id="path7742"
             transform="matrix(-1,0,0,1,272.62852,53.670762)"
             d="m 116.73282,66.275268 c 6.93631,0 12.5593,-14.80922 12.5593,-33.077318 0,-18.268097 -5.62299,-33.07731673 -12.55931,-33.07731673 -6.93631,0 -12.5593,14.80921973 -12.5593,33.07731673 0,18.268098 5.62299,33.077318 12.55931,33.077318 z"
             inkscape:connector-curvature="0" />
        </g>
        <path
           id="path7746"
           mask="url(#a)"
           d="m 251.46701,173.09985 c -20.23008,-33.60997 -56.88957,-56.06791 -98.75578,-56.06791 -40.7208,0 -76.515877,21.2459 -97.058696,53.33459 m 2.198111,129.16953 c 20.840303,30.2327 55.555905,50.02659 94.860585,50.02659 39.3761,0 74.14642,-19.86588 94.97405,-50.19149"
           inkscape:connector-curvature="0"
           style="stroke:#0f1689;stroke-width:20" />
      </g>
      <g
         id="g7760"
         transform="translate(11.958136)">
        <g
           id="g7756"
           mask="url(#b)"
           style="fill:#0f1689">
          <path
             id="path7750"
             transform="rotate(35,141.83137,150.32029)"
             d="m 203.46068,95.687543 c 6.93631,0 12.5593,-14.80922 12.5593,-33.077318 0,-18.268097 -5.62299,-33.077317 -12.5593,-33.077317 -6.93631,0 -12.55931,14.80922 -12.55931,33.077317 0,18.268098 5.62299,33.077318 12.55931,33.077318 z"
             inkscape:connector-curvature="0" />
          <path
             id="path7752"
             transform="matrix(-0.81915204,0.57357644,0.57357644,0.81915204,58.084611,45.245308)"
             d="m 30.142322,95.687543 c 6.936311,0 12.559301,-14.80922 12.559301,-33.077318 0,-18.268097 -5.62299,-33.077317 -12.559301,-33.077317 -6.93631,0 -12.559301,14.80922 -12.559301,33.077317 0,18.268098 5.622991,33.077318 12.559301,33.077318 z"
             inkscape:connector-curvature="0" />
          <path
             id="path7754"
             transform="matrix(-1,0,0,1,272.62852,51.211302)"
             d="m 116.73282,66.275268 c 6.93631,0 12.5593,-14.80922 12.5593,-33.077318 0,-18.268097 -5.62299,-33.07731673 -12.55931,-33.07731673 -6.93631,0 -12.5593,14.80921973 -12.5593,33.07731673 0,18.268098 5.62299,33.077318 12.55931,33.077318 z"
             inkscape:connector-curvature="0" />
        </g>
        <path
           id="path7758"
           mask="url(#b)"
           d="m 251.46701,170.64039 c -20.23008,-33.60997 -56.88957,-56.06791 -98.75578,-56.06791 -40.7208,0 -76.515877,21.2459 -97.058696,53.33459 m 2.198111,129.16953 c 20.840303,30.2327 55.555905,50.02659 94.860585,50.02659 39.3761,0 74.14642,-19.86588 94.97405,-50.19149"
           inkscape:connector-curvature="0"
           style="stroke:#0f1689;stroke-width:20" />
      </g>
    </g>
    <g
       id="g7798"
       transform="matrix(0.5344693,0,0,0.5344693,-38.531464,118.68438)">
      <path
         style="fill:#326de6"
         id="path10349"
         d="m 79.797436,18.8 c -0.5,-1.6 -1.7,-2.9 -3.2,-3.7 l -30.5,-14.6 c -0.8,-0.4 -1.7,-0.5 -2.5,-0.5 -0.8,0 -1.7,0 -2.5,0.2 l -30.5,14.7 c -1.5000002,0.7 -2.6000002,2 -3.0000002,3.7 L 0.09743584,51.5 c -0.3,1.7 0.1,3.4 1.09999996,4.8 L 22.297436,82.4 c 1.2,1.2 2.9,2 4.6,2.1 h 33.6 c 1.8,0.2 3.5,-0.6 4.6,-2.1 l 21.1,-26.1 c 1,-1.4 1.4,-3.1 1.2,-4.8 z"
         inkscape:connector-curvature="0" />
      <path
         style="fill:#ffffff"
         id="path10351"
         d="m 75.097436,50.2 v 0 c -0.1,0 -0.2,0 -0.2,-0.1 0,-0.1 -0.2,-0.1 -0.4,-0.1 -0.4,-0.1 -0.8,-0.1 -1.2,-0.1 -0.2,0 -0.4,0 -0.6,-0.1 h -0.1 c -1.1,-0.1 -2.3,-0.3 -3.4,-0.6 -0.3,-0.1 -0.6,-0.4 -0.7,-0.7 0.1,0 0,0 0,0 v 0 l -0.8,-0.2 c 0.4,-2.9 0.2,-5.9 -0.4,-8.8 -0.7,-2.9 -1.9,-5.7 -3.5,-8.2 l 0.6,-0.6 v 0 -0.1 c 0,-0.3 0.1,-0.7 0.3,-0.9 0.9,-0.8 1.8,-1.4 2.8,-2 v 0 c 0.2,-0.1 0.4,-0.2 0.6,-0.3 0.4,-0.2 0.7,-0.4 1.1,-0.6 0.1,-0.1 0.2,-0.1 0.3,-0.2 0.1,-0.1 0,-0.1 0,-0.2 v 0 c 0.9,-0.7 1.1,-1.9 0.4,-2.8 -0.3,-0.4 -0.9,-0.7 -1.4,-0.7 -0.5,0 -1,0.2 -1.4,0.5 v 0 l -0.1,0.1 c -0.1,0.1 -0.2,0.2 -0.3,0.2 -0.3,0.3 -0.6,0.6 -0.8,0.9 -0.1,0.2 -0.3,0.3 -0.4,0.4 v 0 c -0.7,0.8 -1.6,1.6 -2.5,2.2 -0.2,0.1 -0.4,0.2 -0.6,0.2 -0.1,0 -0.3,0 -0.4,-0.1 h -0.1 l -0.8,0.5 c -0.8,-0.8 -1.7,-1.6 -2.5,-2.4 -3.7,-2.9 -8.3,-4.7 -13,-5.2 l -0.1,-0.8 v 0 0.1 c -0.3,-0.2 -0.4,-0.5 -0.5,-0.8 0,-1.1 0,-2.2 0.2,-3.4 v -0.1 c 0,-0.2 0.1,-0.4 0.1,-0.6 0.1,-0.4 0.1,-0.8 0.2,-1.2 v -0.6 0 c 0.1,-1 -0.7,-2 -1.7,-2.1 -0.6,-0.1 -1.2,0.2 -1.7,0.7 -0.4,0.4 -0.6,0.9 -0.6,1.4 v 0 0.5 c 0,0.4 0.1,0.8 0.2,1.2 0.1,0.2 0.1,0.4 0.1,0.6 v 0.1 c 0.2,1.1 0.2,2.2 0.2,3.4 -0.1,0.3 -0.2,0.6 -0.5,0.8 v 0.2 0 l -0.1,0.8 c -1.1,0.1 -2.2,0.3 -3.4,0.5 -4.7,1 -9,3.5 -12.3,7 l -0.6,-0.4 h -0.1 c -0.1,0 -0.2,0.1 -0.4,0.1 -0.2,0 -0.4,-0.1 -0.6,-0.2 -0.9,-0.7 -1.8,-1.5 -2.5,-2.3 v 0 c -0.1,-0.2 -0.3,-0.3 -0.4,-0.4 -0.3,-0.3 -0.5,-0.6 -0.8,-0.9 -0.1,-0.1 -0.2,-0.1 -0.3,-0.2 -0.1,-0.1 -0.1,-0.1 -0.1,-0.1 v 0 c -0.4,-0.3 -0.9,-0.5 -1.4,-0.5 -0.6,0 -1.1,0.2 -1.4,0.7 -0.6,0.9 -0.4,2.1 0.4,2.8 v 0 c 0.1,0 0.1,0.1 0.1,0.1 0,0 0.2,0.2 0.3,0.2 0.3,0.2 0.7,0.4 1.1,0.6 0.2,0.1 0.4,0.2 0.6,0.3 v 0 c 1,0.6 2,1.2 2.8,2 0.2,0.2 0.4,0.6 0.3,0.9 v -0.1 0 l 0.6,0.6 c -0.1,0.2 -0.2,0.3 -0.3,0.5 -3.1,4.9 -4.4,10.7 -3.5,16.4 l -0.8,0.2 v 0 c 0,0.1 -0.1,0.1 -0.1,0.1 -0.1,0.3 -0.4,0.5 -0.7,0.7 -1.1,0.3 -2.2,0.5 -3.4,0.6 v 0 c -0.2,0 -0.4,0 -0.6,0.1 -0.4,0 -0.8,0.1 -1.2,0.1 -0.1,0 -0.2,0.1 -0.4,0.1 -0.1,0 -0.1,0 -0.2,0.1 v 0 c -1.1,0.2 -1.8,1.2 -1.6,2.3 0,0 0,0 0,0 0.2,0.9 1.1,1.5 2,1.4 0.2,0 0.3,0 0.5,-0.1 v 0 c 0.1,0 0.1,0 0.1,-0.1 0,-0.1 0.3,0 0.4,0 0.4,-0.1 0.8,-0.3 1.1,-0.4 0.2,-0.1 0.4,-0.2 0.6,-0.2 h 0.1 c 1.1,-0.4 2.1,-0.7 3.3,-0.9 h 0.1 c 0.3,0 0.6,0.1 0.8,0.3 0.1,0 0.1,0.1 0.1,0.1 v 0 l 0.9,-0.1 c 1.5,4.6 4.3,8.7 8.2,11.7 0.9,0.7 1.7,1.3 2.7,1.8 l -0.5,0.7 v 0 c 0,0.1 0.1,0.1 0.1,0.1 0.2,0.3 0.2,0.7 0.1,1 -0.4,1 -1,2 -1.6,2.9 v 0.1 c -0.1,0.2 -0.2,0.3 -0.4,0.5 -0.2,0.2 -0.4,0.6 -0.7,1 -0.1,0.1 -0.1,0.2 -0.2,0.3 0,0 0,0.1 -0.1,0.1 v 0 c -0.5,1 -0.1,2.2 0.8,2.7 0.2,0.1 0.5,0.2 0.7,0.2 0.8,0 1.5,-0.5 1.9,-1.2 v 0 c 0,0 0,-0.1 0.1,-0.1 0,-0.1 0.1,-0.2 0.2,-0.3 0.1,-0.4 0.3,-0.7 0.4,-1.1 l 0.2,-0.6 v 0 c 0.3,-1.1 0.8,-2.1 1.3,-3.1 0.2,-0.3 0.5,-0.5 0.8,-0.6 0.1,0 0.1,0 0.1,-0.1 v 0 l 0.4,-0.8 c 2.8,1.1 5.7,1.6 8.7,1.6 1.8,0 3.6,-0.2 5.4,-0.7 1.1,-0.2 2.2,-0.6 3.2,-0.9 l 0.4,0.7 v 0 c 0.1,0 0.1,0 0.1,0.1 0.3,0.1 0.6,0.3 0.8,0.6 0.5,1 1,2 1.3,3.1 v 0.1 l 0.2,0.6 c 0.1,0.4 0.2,0.8 0.4,1.1 0.1,0.1 0.1,0.2 0.2,0.3 0,0 0,0.1 0.1,0.1 v 0 c 0.4,0.7 1.1,1.2 1.9,1.2 0.3,0 0.5,-0.1 0.8,-0.2 0.4,-0.2 0.8,-0.6 0.9,-1.1 0.1,-0.5 0.1,-1 -0.1,-1.5 v 0 c 0,-0.1 -0.1,-0.1 -0.1,-0.1 0,-0.1 -0.1,-0.2 -0.2,-0.3 -0.2,-0.4 -0.4,-0.7 -0.7,-1 -0.1,-0.2 -0.2,-0.3 -0.4,-0.5 v -0.2 c -0.7,-0.9 -1.2,-1.9 -1.6,-2.9 -0.1,-0.3 -0.1,-0.7 0.1,-1 0,-0.1 0.1,-0.1 0.1,-0.1 v 0 l -0.3,-0.8 c 5.1,-3.1 9,-7.9 10.8,-13.6 l 0.8,0.1 v 0 c 0.1,0 0.1,-0.1 0.1,-0.1 0.2,-0.2 0.5,-0.3 0.8,-0.3 h 0.1 c 1.1,0.2 2.2,0.5 3.2,0.9 h 0.1 c 0.2,0.1 0.4,0.2 0.6,0.2 0.4,0.2 0.7,0.4 1.1,0.5 0.1,0 0.2,0.1 0.4,0.1 0.1,0 0.1,0 0.2,0.1 v 0 c 0.2,0.1 0.3,0.1 0.5,0.1 0.9,0 1.7,-0.6 2,-1.4 -0.1,-1.1 -0.9,-1.9 -1.8,-2.1 z m -28.9,-3.1 -2.7,1.3 -2.7,-1.3 -0.7,-2.9 1.9,-2.4 h 3 l 1.9,2.4 z m 16.3,-6.5 c 0.5,2.1 0.6,4.2 0.4,6.3 l -9.5,-2.7 v 0 c -0.9,-0.2 -1.4,-1.1 -1.2,-2 0.1,-0.3 0.2,-0.5 0.4,-0.7 l 7.5,-6.8 c 1.1,1.8 1.9,3.8 2.4,5.9 z m -5.4,-9.6 -8.2,5.8 c -0.7,0.4 -1.7,0.3 -2.2,-0.4 -0.2,-0.2 -0.3,-0.4 -0.3,-0.7 l -0.6,-10.1 c 4.4,0.5 8.3,2.4 11.3,5.4 z m -18.1,-5.1 2,-0.4 -0.5,10 v 0 c 0,0.9 -0.8,1.6 -1.7,1.6 -0.3,0 -0.5,-0.1 -0.8,-0.2 l -8.3,-5.9 c 2.6,-2.5 5.8,-4.3 9.3,-5.1 z m -12.2,8.8 7.4,6.6 v 0 c 0.7,0.6 0.8,1.6 0.2,2.3 -0.2,0.3 -0.4,0.4 -0.8,0.5 l -9.7,2.8 c -0.3,-4.2 0.7,-8.5 2.9,-12.2 z m -1.7,16.9 9.9,-1.7 c 0.8,0 1.6,0.5 1.7,1.3 0.1,0.3 0.1,0.7 -0.1,1 v 0 l -3.8,9.2 c -3.5,-2.3 -6.3,-5.8 -7.7,-9.8 z m 22.7,12.4 c -1.4,0.3 -2.8,0.5 -4.3,0.5 -2.1,0 -4.3,-0.4 -6.3,-1 l 4.9,-8.9 c 0.5,-0.6 1.3,-0.8 2,-0.4 0.3,0.2 0.5,0.4 0.8,0.7 v 0 l 4.8,8.7 c -0.6,0.1 -1.2,0.2 -1.9,0.4 z m 12.2,-8.7 c -1.5,2.4 -3.6,4.5 -6,6 l -3.9,-9.4 c -0.2,-0.8 0.2,-1.6 0.9,-1.9 0.3,-0.1 0.6,-0.2 0.9,-0.2 l 10,1.7 c -0.5,1.4 -1.1,2.7 -1.9,3.8 z"
         inkscape:connector-curvature="0" />
      <path
         style="fill:#000000"
         id="path3003"
         d="m 484.49744,62.5 c 1.4,0.1 2.9,-0.1 4.2,-0.6 0.8,-0.4 1.3,-1.3 1.2,-2.2 -0.1,-1 -0.7,-1.9 -1.6,-2.2 -1.5,-0.9 -3.2,-1.7 -4.9,-2.2 -1.7,-0.6 -3.2,-1.3 -4.6,-2 -1.3,-0.6 -2.4,-1.4 -3.5,-2.4 -1,-1 -1.7,-2.1 -2.2,-3.4 -0.6,-1.5 -0.8,-3.1 -0.8,-4.7 -0.1,-3.3 1.4,-6.5 4,-8.5 2.7,-2.1 6.3,-3.1 10.9,-3.1 2.2,0 4.5,0.2 6.7,0.7 1.7,0.3 3.4,0.7 5.1,1.3 l -1.9,8.5 c -1.4,-0.5 -2.7,-0.8 -4.1,-1.2 -1.6,-0.4 -3.3,-0.5 -4.9,-0.5 -3.4,0 -5.1,0.9 -5.1,2.8 0,0.4 0.1,0.8 0.2,1.2 0.2,0.4 0.5,0.7 0.9,1 0.4,0.3 1,0.6 1.7,1 0.7,0.4 1.7,0.8 2.9,1.2 2,0.7 4,1.6 5.8,2.6 1.4,0.7 2.6,1.6 3.6,2.8 0.9,0.9 1.5,2 1.9,3.3 0.4,1.4 0.6,2.8 0.6,4.2 0.2,3.4 -1.4,6.7 -4.3,8.6 -2.8,1.9 -6.8,2.9 -12,2.9 -2.9,0.1 -5.7,-0.2 -8.5,-0.9 -1.6,-0.4 -3.1,-0.9 -4.6,-1.4 l 1.8,-8.8 c 1.8,0.7 3.7,1.3 5.6,1.7 2,0.1 3.9,0.3 5.9,0.3 m -55.1,-11 c -0.1,-3 0.5,-6 1.5,-8.8 0.9,-2.4 2.3,-4.5 4.1,-6.4 1.7,-1.7 3.6,-3 5.8,-3.8 2.2,-0.9 4.5,-1.3 6.8,-1.3 5.4,0 9.7,1.7 12.8,5 3.1,3.3 4.7,8.2 4.7,14.6 0,0.6 0,1.3 -0.1,2.1 0,0.8 -0.1,1.4 -0.1,2 h -24.4 c 0.2,2.1 1.3,4.1 3.1,5.3 2.2,1.4 4.8,2.1 7.4,2 1.9,0 3.9,-0.2 5.8,-0.5 1.6,-0.3 3.2,-0.8 4.7,-1.5 l 1.5,8.8 c -0.7,0.4 -1.5,0.6 -2.3,0.9 -1.1,0.3 -2.2,0.6 -3.3,0.7 -1.2,0.2 -2.4,0.4 -3.8,0.6 -1.3,0.1 -2.7,0.2 -4.1,0.2 -3.1,0.1 -6.1,-0.4 -9,-1.5 -2.4,-0.9 -4.5,-2.3 -6.3,-4.1 -1.7,-1.8 -2.9,-4 -3.7,-6.3 -0.7,-2.7 -1.1,-5.4 -1.1,-8 m 25.3,-4.1 c 0,-0.9 -0.2,-1.8 -0.5,-2.7 -0.2,-0.9 -0.7,-1.6 -1.2,-2.3 -0.6,-0.7 -1.3,-1.3 -2.1,-1.7 -1,-0.5 -2,-0.7 -3.1,-0.7 -1.1,0 -2.1,0.2 -3.1,0.7 -0.8,0.4 -1.6,0.9 -2.2,1.6 -0.6,0.7 -1.1,1.5 -1.4,2.4 -0.3,0.9 -0.5,1.8 -0.6,2.7 h 14.2 m -54.6,-24.8 10.8,-1.7 v 11.2 h 13 v 9 h -13 v 13.4 c -0.1,1.9 0.3,3.8 1.2,5.4 0.8,1.3 2.4,2 4.9,2 1.2,0 2.4,-0.1 3.5,-0.3 1.2,-0.2 2.3,-0.5 3.4,-0.9 l 1.5,8.4 c -1.4,0.6 -2.9,1 -4.4,1.4 -1.9,0.4 -3.9,0.6 -5.9,0.6 -2.5,0.1 -5,-0.3 -7.3,-1.2 -1.8,-0.7 -3.4,-1.9 -4.6,-3.3 -1.2,-1.5 -2,-3.3 -2.5,-5.2 -0.5,-2.2 -0.7,-4.5 -0.6,-6.7 V 22.6 m -43.7,28.9 c -0.1,-3 0.5,-6 1.5,-8.8 0.9,-2.4 2.3,-4.5 4.1,-6.4 1.7,-1.7 3.6,-3 5.8,-3.8 2.2,-0.9 4.5,-1.3 6.8,-1.3 5.4,0 9.7,1.7 12.8,5 3.1,3.3 4.7,8.2 4.7,14.6 0,0.6 0,1.3 -0.1,2.1 -0.1,0.8 -0.1,1.4 -0.1,2 h -24.5 c 0.2,2.1 1.3,4.1 3.1,5.3 2.2,1.4 4.8,2.1 7.4,2 1.9,0 3.9,-0.2 5.8,-0.5 1.6,-0.3 3.2,-0.8 4.8,-1.5 l 1.5,8.8 c -0.7,0.4 -1.5,0.6 -2.3,0.9 -1.1,0.3 -2.2,0.6 -3.3,0.7 -1.2,0.2 -2.4,0.4 -3.8,0.6 -1.3,0.1 -2.7,0.2 -4.1,0.2 -3.1,0.1 -6.1,-0.4 -9,-1.5 -2.4,-0.9 -4.5,-2.3 -6.3,-4.1 -1.7,-1.8 -2.9,-4 -3.7,-6.3 -0.8,-2.7 -1.2,-5.4 -1.1,-8 m 25.3,-4.1 c 0,-0.9 -0.2,-1.8 -0.5,-2.7 -0.2,-0.9 -0.7,-1.6 -1.2,-2.3 -0.6,-0.7 -1.3,-1.3 -2.1,-1.7 -1,-0.5 -2,-0.7 -3.1,-0.7 -1.1,0 -2.1,0.2 -3.1,0.7 -0.8,0.4 -1.5,0.9 -2.1,1.6 -0.6,0.7 -1.1,1.5 -1.4,2.4 -0.3,0.9 -0.5,1.8 -0.6,2.7 h 14.1 m -66.3,-14 c 2.3,-0.6 4.7,-1.1 7.1,-1.5 3,-0.5 6.1,-0.7 9.1,-0.7 2.7,-0.1 5.4,0.4 8,1.3 2,0.7 3.8,1.9 5.1,3.5 1.3,1.6 2.2,3.5 2.7,5.5 0.6,2.3 0.8,4.7 0.8,7.1 v 21.5 h -10.7 V 50 c 0,-3.5 -0.5,-5.9 -1.4,-7.4 -0.9,-1.4 -2.6,-2.2 -5.1,-2.2 -0.8,0 -1.6,0 -2.5,0.1 -0.9,0 -1.6,0.1 -2.3,0.2 v 29.4 h -10.8 V 33.4 m -7.6,8.3 c -1,-0.2 -2.1,-0.5 -3.4,-0.7 -1.4,-0.3 -2.8,-0.4 -4.2,-0.4 -0.8,0 -1.6,0.1 -2.5,0.2 -0.7,0.1 -1.4,0.2 -2.1,0.4 v 29.1 h -10.8 V 34.1 c 2.2,-0.8 4.5,-1.4 6.8,-1.9 2.9,-0.7 5.9,-1 8.8,-0.9 0.7,0 1.4,0.1 2.1,0.1 0.8,0 1.6,0.1 2.5,0.3 0.8,0.1 1.6,0.2 2.5,0.4 0.7,0.1 1.4,0.3 2.1,0.6 l -1.8,9 m -67.1,9.8 c -0.1,-3 0.5,-6 1.5,-8.8 0.9,-2.4 2.3,-4.5 4.1,-6.4 1.7,-1.7 3.6,-3 5.8,-3.8 2.2,-0.9 4.5,-1.3 6.8,-1.3 5.4,0 9.7,1.7 12.8,5 3.1,3.3 4.7,8.2 4.7,14.5 0,0.6 0,1.3 -0.1,2.1 -0.1,0.8 -0.1,1.4 -0.1,2 h -24.5 c 0.2,2.1 1.3,4.1 3.1,5.3 2.2,1.4 4.8,2.1 7.4,2 1.9,0 3.9,-0.2 5.8,-0.5 1.6,-0.3 3.2,-0.8 4.7,-1.4 l 1.5,8.8 c -0.7,0.4 -1.5,0.6 -2.3,0.9 -1.1,0.3 -2.2,0.6 -3.3,0.7 -1.2,0.2 -2.4,0.4 -3.8,0.6 -1.3,0.1 -2.7,0.2 -4.1,0.2 -3.1,0.1 -6.1,-0.4 -9,-1.5 -2.4,-0.9 -4.5,-2.3 -6.3,-4.1 -1.7,-1.8 -2.9,-4 -3.7,-6.3 -0.6,-2.7 -1,-5.3 -1,-8 m 25.4,-4.1 c 0,-0.9 -0.2,-1.8 -0.5,-2.7 -0.2,-0.9 -0.7,-1.6 -1.2,-2.3 -0.6,-0.7 -1.3,-1.3 -2.1,-1.7 -1,-0.5 -2,-0.7 -3.1,-0.7 -1.1,0 -2.1,0.2 -3.1,0.7 -0.8,0.4 -1.6,0.9 -2.2,1.6 -0.6,0.7 -1.1,1.5 -1.4,2.4 -0.3,0.9 -0.5,1.8 -0.6,2.7 h 14.2 m -42.9,3.5 c 0,-7 -2.6,-10.4 -7.7,-10.4 -1.1,0 -2.2,0.1 -3.3,0.4 -0.9,0.2 -1.8,0.6 -2.6,1.1 v 19.6 c 0.5,0.1 1.2,0.2 2,0.3 0.8,0.1 1.7,0.1 2.7,0.1 2.6,0.2 5.1,-0.9 6.7,-3 1.5,-2.4 2.3,-5.2 2.2,-8.1 m 11,0.4 c 0,2.8 -0.4,5.6 -1.4,8.3 -0.8,2.4 -2.1,4.5 -3.8,6.3 -1.8,1.8 -3.9,3.2 -6.2,4.1 -2.7,1 -5.5,1.4 -8.4,1.4 -1.3,0 -2.7,-0.1 -4.1,-0.2 -1.4,-0.1 -2.8,-0.3 -4.2,-0.4 -1.3,-0.2 -2.6,-0.4 -3.9,-0.7 -1.3,-0.2 -2.4,-0.5 -3.3,-0.9 V 15.7 l 10.8,-1.7 v 19 c 1.2,-0.5 2.5,-0.9 3.8,-1.2 1.4,-0.3 2.8,-0.4 4.2,-0.4 2.5,0 4.9,0.4 7.2,1.5 2,0.9 3.8,2.3 5.2,4 1.5,1.9 2.6,4 3.2,6.3 0.6,2.5 0.9,5.3 0.9,8.1 m -45.6,17.6 c -2.3,0.6 -4.7,1.1 -7.1,1.4 -3,0.5 -6.1,0.7 -9.1,0.7 -2.8,0.1 -5.5,-0.4 -8.1,-1.3 -2,-0.8 -3.7,-2 -5.1,-3.6 -1.3,-1.7 -2.2,-3.6 -2.7,-5.7 -0.6,-2.3 -0.8,-4.8 -0.8,-7.2 V 32.1 h 10.8 V 52 c 0,3.5 0.5,6 1.4,7.5 0.9,1.5 2.6,2.3 5.1,2.3 0.8,0 1.6,0 2.5,-0.1 0.9,-0.1 1.6,-0.1 2.3,-0.3 V 32.1 h 10.8 v 36.8 m -63,-23 c 1.1,-1.2 2.1,-2.4 3.3,-3.6 1.1,-1.3 2.2,-2.5 3.3,-3.7 1.1,-1.3 2.1,-2.4 3,-3.5 0.9,-1.1 1.8,-2.1 2.5,-2.9 h 12.8 c -2.6,2.9 -5.1,5.8 -7.5,8.5 -2.5,2.7 -5.1,5.5 -8,8.3 1.6,1.5 3.1,3 4.5,4.7 1.5,1.8 3,3.6 4.5,5.6 1.4,1.9 2.8,3.9 4,5.8 1.2,1.9 2.2,3.7 3,5.3 h -12.4 c -0.8,-1.3 -1.7,-2.6 -2.7,-4.1 -1,-1.5 -2.1,-3 -3.1,-4.6 -1.1,-1.5 -2.3,-3 -3.6,-4.4 -1.1,-1.3 -2.3,-2.5 -3.6,-3.5 v 16.7 h -10.8 V 15.7 l 10.8,-1.7 v 31.9"
         inkscape:connector-curvature="0" />
    </g>
    <g
       id="g7825"
       transform="matrix(0.31074467,0,0,0.31074467,69.939628,179.97319)">
      <path
         id="path7802"
         d="m 1.6,169.5 h 34.2 c 16.2,0 27.2,7.9 27.2,23.1 0,12.4 -8.5,19.9 -16.7,22.5 2.5,2.1 4.3,4.9 5.8,7.9 3.4,7 5.8,14.8 13,14.8 1.8,0 3.3,-0.6 3.3,-0.6 l -1.6,14.6 c 0,0 -4.4,1.1 -8.2,1.1 -9.8,0 -15.5,-3.8 -21.3,-17 -2.5,-5.9 -5.9,-16.2 -10.5,-16.2 h -4.7 v 32.8 H 1.6 Z m 20.5,14.9 v 20.4 h 7.4 c 5.9,0 12.8,-1.8 12.8,-10.7 0,-7.3 -4.7,-9.7 -10.3,-9.7 z m 68.7,-14.9 h 20.8 l 28,83 h -20.8 l -5.2,-15.7 H 85.9 l -5,15.7 h -18 z m 0,52 h 17.8 L 102.9,204 c -2,-5.9 -2.8,-14.3 -2.8,-14.3 h -0.5 c 0,0 -1.2,8.5 -3.1,14.1 z m 49.7,31 h 16.9 v -39.9 c 0,-4.5 -0.6,-10.1 -1,-14.8 h 0.5 c 1.7,4.4 3.9,9.8 6,13.5 l 22.6,41.1 H 207 v -83 h -16.9 v 39.9 c 0,4.8 0.6,11.4 0.9,16.1 h -0.5 c -2,-4.9 -4.4,-11.2 -6.3,-14.8 l -21.8,-41.2 h -22 v 83.1 z m 70.9,-42.1 c 0,30.3 14.5,43.5 37,43.5 22.1,0 34.3,-12.4 33,-29.3 l -18,-1.8 c 1.5,10.8 -5.4,16.1 -13.9,16.1 -9,0 -16.9,-5.8 -16.9,-28.4 0,-21.4 7.3,-28 16.2,-28 9.3,0 14.5,5.3 12.4,18.5 l 19.2,-1.7 c 2.7,-18 -7,-31.2 -31.2,-31.2 -22.9,-0.1 -37.8,12.3 -37.8,42.3 m 74.2,42.1 h 20.5 v -35.2 h 25.2 v 35.2 h 20.5 v -83 h -20.5 v 31.4 h -25.2 v -31.4 h -20.5 z m 74.5,0 h 56.2 v -15.3 h -35.7 v -19.4 h 28.9 V 202.5 H 380.6 V 184.7 H 415 v -15.3 h -55 v 83.1 z m 60.2,-83 h 34.2 c 16.2,0 27.2,7.9 27.2,23.1 0,12.4 -8.5,19.9 -16.7,22.5 2.5,2.1 4.3,4.9 5.8,7.9 3.4,7 5.8,14.8 13,14.8 1.8,0 3.3,-0.6 3.3,-0.6 l -1.6,14.6 c 0,0 -4.4,1.1 -8.2,1.1 -9.8,0 -15.5,-3.8 -21.3,-17 -2.5,-5.9 -5.9,-16.2 -10.5,-16.2 h -4.7 v 32.8 h -20.5 z m 20.5,14.9 v 20.4 h 7.4 c 5.9,0 12.8,-1.8 12.8,-10.7 0,-7.3 -4.7,-9.7 -10.3,-9.7 z"
         class="st1"
         inkscape:connector-curvature="0"
         style="fill:#59595b" />
      <g
         id="g7808">
	<path
   id="path7804"
   d="M 393.2,30.7 390,11.3 C 389,5.1 386.5,0 384.6,0 c -1.9,0 -3.5,5.2 -3.5,11.5 v 5.1 c 0,6.3 -5.2,11.5 -11.5,11.5 h -5.1 c -0.4,0 -0.7,0 -1.1,0 V 42 c 0.4,0 0.7,0 1.1,0 h 19.1 c 6.3,0 10.6,-5.1 9.6,-11.3"
   class="st0"
   inkscape:connector-curvature="0"
   style="fill:#0075a8" />

	<path
   id="path7806"
   d="m 347.5,14.3 h -30.9 c -0.3,0 -0.5,0 -0.8,0 H 284 c -0.4,0 -0.7,0 -1.1,0.1 v -3 c 0,-6.3 -1.6,-11.5 -3.5,-11.5 -1.9,0 -4.4,5.1 -5.4,11.3 l -3.2,19.4 c -1,6.2 3.3,11.3 9.6,11.3 h 19.1 c 2,0 3.8,-0.3 5.4,-0.8 -0.6,3.3 -3.5,5.7 -6.9,5.7 h -26.8 c -4.3,0 -7.6,-3.9 -6.9,-8.2 L 267,22.3 c 0.7,-4.3 -2.6,-8.2 -6.9,-8.2 H 127 c -2.8,0 -5.3,1.7 -6.4,4.1 l -25,38.4 c -0.4,0.6 -0.4,1.5 0.1,2.1 l 4.9,5.7 c 0.6,0.7 1.7,0.8 2.4,0.2 l 17,-13.4 v 81.6 c 0,3.9 3.1,7 7,7 h 37.8 c 3.9,0 7,-3.1 7,-7 v -28.4 c 0,-3.9 3.1,-7 7,-7 h 94.4 c 3.9,0 7,3.1 7,7 v 28.4 c 0,3.9 3.1,7 7,7 H 325 c 3.9,0 7,-3.1 7,-7 v -30.5 h -20.1 c -6.3,0 -11.5,-5.2 -11.5,-11.5 V 71.2 c 0,-3.7 1.8,-7.1 4.6,-9.2 v 23.4 c 0,6.3 5.2,11.5 11.5,11.5 h 30.9 c 6.3,0 11.5,-5.2 11.5,-11.5 V 25.8 c 0,-6.3 -5.1,-11.5 -11.4,-11.5"
   class="st0"
   inkscape:connector-curvature="0"
   style="fill:#0075a8" />

</g>
      <path
         id="path7810"
         d="m 487.4,173.6 c 0,-3.9 2.9,-5.6 5.6,-5.6 2.7,0 5.6,1.7 5.6,5.6 0,3.8 -2.9,5.5 -5.6,5.5 -2.7,0 -5.6,-1.7 -5.6,-5.5 z m 9.9,0 c 0,-3.1 -2,-4.4 -4.2,-4.4 -2.2,0 -4.3,1.3 -4.3,4.4 0,3 2.1,4.4 4.3,4.4 2.2,0 4.2,-1.4 4.2,-4.4 z m -6.1,-2.8 h 2 c 1,0 2,0.3 2,1.7 0,0.8 -0.6,1.3 -1.3,1.5 l 1.3,2.3 H 494 l -1.2,-2.2 h -0.5 v 2.2 h -1.1 z m 2,2.5 c 0.5,0 0.9,-0.3 0.9,-0.8 0,-0.6 -0.5,-0.7 -0.9,-0.7 h -1 v 1.5 z"
         class="st1"
         inkscape:connector-curvature="0"
         style="fill:#59595b" />
    </g>
  </g>
  <style
     id="style7800"
     type="text/css">
	.st0{fill:#0075A8;}
	.st1{fill:#59595B;}
	.st2{fill:#CCCCCC;}
	.st3{fill:#B3B3B3;}
	.st4{fill:#FFFFFF;}
</style>
</svg>
